<svg xmlns="http://www.w3.org/2000/svg" viewBox="0 0 1200 1000">
  <!-- Background Definitions -->
  <defs>
    <linearGradient id="bg-gradient" x1="0%" y1="0%" x2="100%" y2="100%">
      <stop offset="0%" style="stop-color:#F0F4F8;stop-opacity:1"/>
      <stop offset="100%" style="stop-color:#E6EDF3;stop-opacity:1"/>
    </linearGradient>
    
    <filter id="shadow" x="-20%" y="-20%" width="140%" height="140%">
      <feGaussianBlur in="SourceAlpha" stdDeviation="3"/>
      <feOffset dx="0" dy="3" result="offsetblur"/>
      <feFlood flood-color="#000000" flood-opacity="0.3"/>
      <feComposite in2="offsetblur" operator="in"/>
      <feMerge>
        <feMergeNode/>
        <feMergeNode in="SourceGraphic"/>
      </feMerge>
    </filter>
    
    <marker id="arrowhead" markerWidth="10" markerHeight="7" refX="0" refY="3.5" orient="auto">
      <polygon points="0 0, 10 3.5, 0 7" fill="#3B82F6"/>
    </marker>
  </defs>

  <!-- Background -->
  <rect width="1200" height="1000" fill="url(#bg-gradient)"/>



  <!-- ================ -->
  <!-- Original Latency Diagram (Exact Reproduction) -->
  <!-- ================ -->
  <g transform="translate(100, 100)">
    <!-- Original content from first SVG -->
    <rect x="0" y="0" width="1000" height="400" fill="#f0f0f0" stroke="#000" stroke-width="1" rx="10" ry="10"/>
    
    <!-- Title -->
    <text x="500" y="40" text-anchor="middle" font-size="26" font-weight="bold">Web Latency</text>
    
    <!-- Server -->
    <rect x="100" y="150" width="100" height="100" fill="#4a4a4a" stroke="#000" stroke-width="2"/>
    <text x="150" y="210" text-anchor="middle" fill="white" font-size="16">Server</text>
    
    <!-- Client/Browser -->
    <rect x="800" y="150" width="100" height="100" fill="#4a4a4a" stroke="#000" stroke-width="2"/>
    <text x="850" y="210" text-anchor="middle" fill="white" font-size="16">Browser</text>
    
    <!-- Connection Lines -->
    <line x1="200" y1="200" x2="800" y2="200" stroke="#FF6B6B" stroke-width="3" stroke-dasharray="10,5"/>
    
    <!-- Latency Indicators -->
    <circle cx="500" cy="200" r="15" fill="#FF6B6B" opacity="0.6"/>
    <text x="500" y="300" text-anchor="middle" font-size="16" fill="#FF6B6B">High Latency</text>
    
    <!-- Problem Indicators -->
    <g font-size="14" fill="#333">
      <text x="500" y="100" text-anchor="middle">Full Round Trip for Every Request</text>
      <text x="500" y="350" text-anchor="middle">Slow Page Loads • Repeated Downloads</text>
    </g>
    
    <!-- Arrows showing request/response -->
    <path d="M200 180 Q500 130, 800 180" fill="none" stroke="#FF6B6B" stroke-width="2" marker-end="url(#arrowhead)"/>
    <path d="M800 220 Q500 270, 200 220" fill="none" stroke="#FF6B6B" stroke-width="2" marker-end="url(#arrowhead)"/>
  </g>

  <!-- ================ -->
  <!-- Original Bandwidth/Server Load Diagram (Exact Reproduction) -->
  <!-- ================ -->
  <g transform="translate(0, 550)">
    <!-- Bandwidth Waste Illustration -->
    <g transform="translate(50, 0)">
      <!-- Repeated Download Concept -->
      <rect x="0" y="0" width="500" height="250" rx="15" ry="15" fill="#FFFFFF" filter="url(#shadow)" stroke="#3B82F6" stroke-width="2"/>
      
      <!-- Downloading Arrows -->
      <g transform="translate(250, 125)" stroke="#3B82F6" stroke-width="3">
        <path d="M-100 0 L0 -50 L100 0" fill="none" marker-end="url(#arrowhead)"/>
        <path d="M-100 50 L0 0 L100 50" fill="none" marker-end="url(#arrowhead)"/>
      </g>
      
      <!-- Repeated Content Blocks -->
      <g transform="translate(250, 125)">
        <rect x="-50" y="-25" width="100" height="50" fill="#60A5FA" opacity="0.3" rx="5" ry="5"/>
        <rect x="-75" y="-40" width="150" height="80" fill="#93C5FD" opacity="0.2" rx="5" ry="5"/>
      </g>
      
      <text x="250" y="50" text-anchor="middle" font-size="26" font-weight="bold" fill="#1E3A8A">
        Bandwidth Waste
      </text>
      <text x="250" y="220" text-anchor="middle" font-size="16" fill="#4B5563">
        Repeatedly Downloading Unchanged Content
      </text>
    </g>

    <!-- Server Overload Illustration -->
    <g transform="translate(650, 0)">
      <!-- Server with Multiple Requests -->
      <rect x="0" y="0" width="500" height="250" rx="15" ry="15" fill="#FFFFFF" filter="url(#shadow)" stroke="#10B981" stroke-width="2"/>
      
      <!-- Server -->
      <rect x="200" y="100" width="100" height="100" fill="#34D399" rx="10" ry="10"/>
      
      <!-- Multiple Incoming Requests -->
      <g stroke="#10B981" stroke-width="3">
        <path d="M50 150 L200 150" marker-end="url(#arrowhead)"/>
        <path d="M50 120 L200 140" marker-end="url(#arrowhead)"/>
        <path d="M50 180 L200 160" marker-end="url(#arrowhead)"/>
        
        <path d="M300 150 L450 150" marker-start="url(#arrowhead)"/>
        <path d="M300 120 L450 140" marker-start="url(#arrowhead)"/>
        <path d="M300 180 L450 160" marker-start="url(#arrowhead)"/>
      </g>
      
      <text x="250" y="50" text-anchor="middle" font-size="26" font-weight="bold" fill="#064E3B">
        Server Overload
      </text>
      <text x="250" y="220" text-anchor="middle" font-size="16" fill="#4B5563">
        Unnecessary Repeated Requests for Static Resources
      </text>
    </g>
  </g>
</svg>