<?xml version="1.0" encoding="utf-8"?>
<!-- Generator: Adobe Illustrator 24.2.3, SVG Export Plug-In . SVG Version: 6.00 Build 0)  -->
<svg version="1.1" xmlns="http://www.w3.org/2000/svg" xmlns:xlink="http://www.w3.org/1999/xlink" x="0px" y="0px"
	 viewBox="0 0 900 532" style="enable-background:new 0 0 900 532;" xml:space="preserve">
<style type="text/css">
	.st0{display:none;}
	.st1{display:none;fill:#FFFFFF;}
	.st2{fill:#999999;}
	.st3{fill:none;stroke:#999999;stroke-width:4;stroke-miterlimit:10;}
	.st4{fill:none;stroke:#999999;stroke-width:4;stroke-linecap:round;stroke-miterlimit:10;}
	.st5{fill:none;stroke:#999999;stroke-width:4;stroke-linecap:round;stroke-linejoin:round;stroke-miterlimit:10;}
	.st6{fill:#27AAE1;}
	.st7{fill:none;stroke:#808285;stroke-width:4;stroke-linecap:round;stroke-linejoin:round;}
	.st8{fill:none;stroke:#808285;stroke-width:4;stroke-linecap:round;stroke-linejoin:round;stroke-dasharray:0,7.9936;}
	.st9{fill:#808285;}
	.st10{fill:none;stroke:#F4D642;stroke-width:4;stroke-linecap:round;stroke-miterlimit:10;}
	.st11{fill:#F4D642;}
	.st12{fill:none;stroke:#000000;stroke-width:4;stroke-linecap:round;stroke-miterlimit:10;}
	.st13{fill:none;stroke:#1C75BC;stroke-width:4;stroke-linecap:round;stroke-miterlimit:10;}
	.st14{fill:#1C75BC;}
	.st15{fill:none;stroke:#CE2020;stroke-width:4;stroke-linecap:round;stroke-miterlimit:10;}
	.st16{fill:#CE2020;}
	.st17{fill:none;stroke:#F4D642;stroke-width:3.8195;stroke-linecap:round;stroke-miterlimit:10;}
	.st18{fill:none;stroke:#000000;stroke-width:3.8195;stroke-linecap:round;stroke-miterlimit:10;}
	.st19{fill:none;stroke:#1C75BC;stroke-width:3.8195;stroke-linecap:round;stroke-miterlimit:10;}
	.st20{fill:none;stroke:#CE2020;stroke-width:3.8195;stroke-linecap:round;stroke-miterlimit:10;}
	.st21{fill:none;stroke:#000000;stroke-width:5.2847;stroke-linecap:round;stroke-miterlimit:10;}
	.st22{fill:none;stroke:#000000;stroke-width:2.9918;stroke-linecap:round;stroke-miterlimit:10;}
	.st23{fill:none;stroke:#000000;stroke-width:0.6478;stroke-linecap:round;stroke-miterlimit:10;}
	.st24{fill:none;stroke:#231F20;stroke-width:2;stroke-miterlimit:10;}
	.st25{fill:none;stroke:#231F20;stroke-width:2;stroke-miterlimit:10;stroke-dasharray:0.02,2.98;}
	.st26{fill:none;stroke:#333366;stroke-width:4;stroke-linecap:round;stroke-linejoin:round;}
	.st27{fill:none;stroke:#333366;stroke-width:4;stroke-linecap:round;stroke-linejoin:round;stroke-dasharray:0,7.9903;}
	.st28{fill:#333366;}
	.st29{font-family:'Ubuntu-Medium';}
	.st30{font-size:26.6559px;}
	.st31{font-size:56.5398px;}
	.st32{letter-spacing:-4;}
	.st33{font-size:38px;}
	.st34{letter-spacing:-3;}
	.st35{fill:#FFFFFF;}
	.st36{fill:none;stroke:#333366;stroke-width:3;stroke-linecap:round;stroke-linejoin:round;}
	.st37{fill:none;stroke:#F4D642;stroke-width:3;stroke-linecap:round;stroke-linejoin:round;}
	.st38{fill:#FFFFFF;stroke:#CE2020;stroke-width:3.0134;stroke-linecap:round;stroke-miterlimit:10;}
	.st39{font-size:21px;}
	.st40{letter-spacing:-1;}
	.st41{fill:#FFFFFF;stroke:#39B54A;stroke-width:3.0134;stroke-linecap:round;stroke-miterlimit:10;}
	.st42{fill:#39B54A;}
	.st43{fill:#FFFFFF;stroke:#39B8CC;stroke-width:3.0134;stroke-linecap:round;stroke-miterlimit:10;}
	.st44{fill:#39B8CC;}
	.st45{fill:none;stroke:#8D998E;stroke-width:3;stroke-linecap:round;stroke-miterlimit:10;}
	.st46{fill:none;stroke:#808285;stroke-width:4;stroke-linecap:round;stroke-linejoin:round;stroke-dasharray:0,7.9934;}
</style>
<g id="Layer_2" class="st0">
</g>
<g id="Layer_1">
	<rect x="32.68" y="-1.3" class="st1" width="900" height="533.3"/>
	<g>
		
			<rect x="159.45" y="470.92" transform="matrix(-1 -4.500545e-11 4.500545e-11 -1 326.4517 943.8254)" class="st2" width="7.56" height="1.99"/>
		<path class="st3" d="M171.36,420.01h2.34c3.44,0,6.23,2.79,6.23,6.23v47.75c0,3.44-2.79,6.23-6.23,6.23h-20.96
			c-3.43,0-6.23-2.79-6.23-6.23v-20.58"/>
		<g>
			
				<rect x="24.59" y="448.38" transform="matrix(-3.321175e-13 -1 1 -3.321175e-13 -421.7818 476.4209)" class="st2" width="5.47" height="1.44"/>
			<path class="st4" d="M19.64,421.08v53.72c0,3.51,2.84,6.34,6.33,6.34h77.14c3.51,0,6.34-2.84,6.34-6.34v-53.72
				c0-3.51-2.84-6.34-6.34-6.34H25.97C22.48,414.74,19.64,417.58,19.64,421.08z M100.61,453.41v-31.46H67.15"/>
			<polyline class="st4" points="100.61,453.41 100.61,473.93 34.09,473.93 34.09,421.95 67.15,421.95 			"/>
		</g>
		<line class="st5" x1="109.96" y1="453.41" x2="140.28" y2="453.41"/>
		<line class="st5" x1="109.96" y1="464.32" x2="140.28" y2="464.32"/>
		<line class="st5" x1="109.96" y1="479.9" x2="140.28" y2="479.9"/>
		<polyline class="st5" points="171.36,411.05 171.36,383.41 67.15,383.41 67.15,411.05 		"/>
		<path class="st5" d="M146.51,453.41v-27.17c0-3.44,2.8-6.23,6.23-6.23h18.62"/>
		<line class="st5" x1="125.12" y1="470.92" x2="128" y2="479.9"/>
		<line class="st5" x1="114.64" y1="470.92" x2="112.09" y2="479.9"/>
	</g>
	<g>
		
			<rect x="159.45" y="191.92" transform="matrix(-1 -4.524615e-11 4.524615e-11 -1 326.4517 385.8255)" class="st2" width="7.56" height="1.99"/>
		<path class="st3" d="M171.36,141.01h2.34c3.44,0,6.23,2.79,6.23,6.23v47.75c0,3.44-2.79,6.23-6.23,6.23h-20.96
			c-3.43,0-6.23-2.79-6.23-6.23v-20.58"/>
		<g>
			
				<rect x="24.59" y="169.38" transform="matrix(-3.321175e-13 -1 1 -3.321175e-13 -142.7818 197.4209)" class="st2" width="5.47" height="1.44"/>
			<path class="st4" d="M19.64,142.08v53.72c0,3.51,2.84,6.34,6.33,6.34h77.14c3.51,0,6.34-2.84,6.34-6.34v-53.72
				c0-3.51-2.84-6.34-6.34-6.34H25.97C22.48,135.74,19.64,138.58,19.64,142.08z M100.61,174.41v-31.46H67.15"/>
			<polyline class="st4" points="100.61,174.41 100.61,194.93 34.09,194.93 34.09,142.95 67.15,142.95 			"/>
		</g>
		<line class="st5" x1="109.96" y1="174.41" x2="140.28" y2="174.41"/>
		<line class="st5" x1="109.96" y1="185.32" x2="140.28" y2="185.32"/>
		<line class="st5" x1="109.96" y1="200.9" x2="140.28" y2="200.9"/>
		<polyline class="st5" points="171.36,132.05 171.36,104.41 67.15,104.41 67.15,132.05 		"/>
		<path class="st5" d="M146.51,174.41v-27.17c0-3.44,2.8-6.23,6.23-6.23h18.62"/>
		<line class="st5" x1="125.12" y1="191.92" x2="128" y2="200.9"/>
		<line class="st5" x1="114.64" y1="191.92" x2="112.09" y2="200.9"/>
	</g>
	<g>
		<path class="st6" d="M372.7,439.42c0-18.59-15.24-33.8-34.56-35.12c1.01-2.97,1.56-6.11,1.56-9.37
			c0-18.09-16.69-32.75-37.28-32.75c-18.35,0-33.6,11.66-36.69,27.01c-0.1,0-0.2-0.01-0.31-0.01c-18.21,0-33.36,11.48-36.62,26.65
			c-17.63,2.35-31.06,14.53-31.06,29.2c0,14.49,13.1,26.54,30.4,29.11v0.51H339.7v-0.24C358.27,472.4,372.7,457.5,372.7,439.42z"/>
	</g>
	<g>
		<path class="st6" d="M372.7,165.42c0-18.59-15.24-33.8-34.56-35.12c1.01-2.97,1.56-6.11,1.56-9.37
			c0-18.09-16.69-32.75-37.28-32.75c-18.35,0-33.6,11.66-36.69,27.01c-0.1,0-0.2-0.01-0.31-0.01c-18.21,0-33.36,11.48-36.62,26.65
			c-17.63,2.35-31.06,14.53-31.06,29.2c0,14.49,13.1,26.54,30.4,29.11v0.51H339.7v-0.24C358.27,198.4,372.7,183.5,372.7,165.42z"/>
	</g>
	<g id="server_7_">
		<path d="M750.97,99.78v33.61h132.4V99.78H750.97z M768.41,120.28c-2.03,0-3.69-1.66-3.69-3.69c0-2.04,1.66-3.69,3.69-3.69
			c2.04,0,3.69,1.65,3.69,3.69C772.1,118.63,770.45,120.28,768.41,120.28z M782.87,120.28c-2.03,0-3.69-1.66-3.69-3.69
			c0-2.04,1.66-3.69,3.69-3.69c2.04,0,3.69,1.65,3.69,3.69C786.56,118.63,784.91,120.28,782.87,120.28z M797.33,120.28
			c-2.03,0-3.69-1.66-3.69-3.69c0-2.04,1.66-3.69,3.69-3.69c2.04,0,3.69,1.65,3.69,3.69C801.02,118.63,799.37,120.28,797.33,120.28z
			"/>
		<path d="M750.97,143.31v33.61h132.4v-33.61H750.97z M768.41,163.81c-2.03,0-3.69-1.66-3.69-3.69c0-2.04,1.66-3.69,3.69-3.69
			c2.04,0,3.69,1.65,3.69,3.69C772.1,162.15,770.45,163.81,768.41,163.81z M782.87,163.81c-2.03,0-3.69-1.66-3.69-3.69
			c0-2.04,1.66-3.69,3.69-3.69c2.04,0,3.69,1.65,3.69,3.69C786.56,162.15,784.91,163.81,782.87,163.81z M797.33,163.81
			c-2.03,0-3.69-1.66-3.69-3.69c0-2.04,1.66-3.69,3.69-3.69c2.04,0,3.69,1.65,3.69,3.69C801.02,162.15,799.37,163.81,797.33,163.81z
			"/>
		<g>
			<path d="M829.14,196.33v23.93H805.2v-23.93H829.14 M832.13,193.34h-29.92v29.92h29.92V193.34L832.13,193.34z"/>
		</g>
		<g>
			<line class="st22" x1="817.17" y1="160.12" x2="817.17" y2="195.33"/>
		</g>
		<line class="st22" x1="858.02" y1="208.3" x2="832.13" y2="208.3"/>
		<line class="st22" x1="802.21" y1="208.3" x2="778.58" y2="208.3"/>
	</g>
	<g id="server_8_">
		<path d="M750.97,369.78v33.61h132.4v-33.61H750.97z M768.41,390.28c-2.03,0-3.69-1.66-3.69-3.69s1.66-3.69,3.69-3.69
			c2.04,0,3.69,1.65,3.69,3.69S770.45,390.28,768.41,390.28z M782.87,390.28c-2.03,0-3.69-1.66-3.69-3.69s1.66-3.69,3.69-3.69
			c2.04,0,3.69,1.65,3.69,3.69S784.91,390.28,782.87,390.28z M797.33,390.28c-2.03,0-3.69-1.66-3.69-3.69s1.66-3.69,3.69-3.69
			c2.04,0,3.69,1.65,3.69,3.69S799.37,390.28,797.33,390.28z"/>
		<path d="M750.97,413.31v33.61h132.4v-33.61H750.97z M768.41,433.81c-2.03,0-3.69-1.66-3.69-3.69s1.66-3.69,3.69-3.69
			c2.04,0,3.69,1.65,3.69,3.69S770.45,433.81,768.41,433.81z M782.87,433.81c-2.03,0-3.69-1.66-3.69-3.69s1.66-3.69,3.69-3.69
			c2.04,0,3.69,1.65,3.69,3.69S784.91,433.81,782.87,433.81z M797.33,433.81c-2.03,0-3.69-1.66-3.69-3.69s1.66-3.69,3.69-3.69
			c2.04,0,3.69,1.65,3.69,3.69S799.37,433.81,797.33,433.81z"/>
		<g>
			<path d="M829.14,466.33v23.93H805.2v-23.93H829.14 M832.13,463.34h-29.92v29.92h29.92V463.34L832.13,463.34z"/>
		</g>
		<g>
			<line class="st22" x1="817.17" y1="430.12" x2="817.17" y2="465.33"/>
		</g>
		<line class="st22" x1="858.02" y1="478.3" x2="832.13" y2="478.3"/>
		<line class="st22" x1="802.21" y1="478.3" x2="778.58" y2="478.3"/>
	</g>
	<g>
		<g>
			<line class="st24" x1="0" y1="262" x2="0.01" y2="262"/>
			<line class="st25" x1="2.99" y1="262" x2="898.5" y2="262"/>
			<line class="st24" x1="899.99" y1="262" x2="900" y2="262"/>
		</g>
	</g>
	<g>
		<g>
			<line class="st26" x1="740.04" y1="384.68" x2="740.04" y2="384.68"/>
			<line class="st27" x1="732.05" y1="384.68" x2="400.46" y2="384.68"/>
			<line class="st26" x1="396.46" y1="384.68" x2="396.46" y2="384.68"/>
			<g>
				<path class="st28" d="M377.15,384.68c9.09-3.37,20.36-9.13,27.35-15.22l-5.5,15.22l5.5,15.22
					C397.51,393.8,386.24,388.05,377.15,384.68z"/>
			</g>
		</g>
	</g>
	<g>
		<g>
			<line class="st26" x1="740.04" y1="151.68" x2="740.04" y2="151.68"/>
			<line class="st27" x1="732.05" y1="151.68" x2="400.46" y2="151.68"/>
			<line class="st26" x1="396.46" y1="151.68" x2="396.46" y2="151.68"/>
			<g>
				<path class="st28" d="M377.15,151.68c9.09-3.37,20.36-9.13,27.35-15.22l-5.5,15.22l5.5,15.22
					C397.51,160.8,386.24,155.05,377.15,151.68z"/>
			</g>
		</g>
	</g>
	<g>
		<g>
			<line class="st26" x1="740.04" y1="419.68" x2="740.04" y2="419.68"/>
			<line class="st27" x1="732.05" y1="419.68" x2="400.46" y2="419.68"/>
			<line class="st26" x1="396.46" y1="419.68" x2="396.46" y2="419.68"/>
			<g>
				<path class="st28" d="M377.15,419.68c9.09-3.37,20.36-9.13,27.35-15.22l-5.5,15.22l5.5,15.22
					C397.51,428.8,386.24,423.05,377.15,419.68z"/>
			</g>
		</g>
	</g>
	<g>
		<g>
			<line class="st26" x1="740.04" y1="454.68" x2="740.04" y2="454.68"/>
			<line class="st27" x1="732.05" y1="454.68" x2="400.46" y2="454.68"/>
			<line class="st26" x1="396.46" y1="454.68" x2="396.46" y2="454.68"/>
			<g>
				<path class="st28" d="M377.15,454.68c9.09-3.37,20.36-9.13,27.35-15.22l-5.5,15.22l5.5,15.22
					C397.51,463.8,386.24,458.05,377.15,454.68z"/>
			</g>
		</g>
	</g>
	<text transform="matrix(1 0 0 1 32.1163 91.4575)" class="st29 st30">client</text>
	<text transform="matrix(1 0 0 1 28.6651 57.7871)" class="st29 st31 st32">HTTP/2</text>
	<text transform="matrix(1 0 0 1 32.1163 368.4576)" class="st29 st30">client</text>
	<text transform="matrix(1 0 0 1 752.9523 80.4575)" class="st29 st30">server</text>
	<text transform="matrix(1 0 0 1 752.9523 352.4576)" class="st29 st30">server</text>
	<text transform="matrix(1 0 0 1 29.626 334.7873)" class="st29 st31 st32">QUIC</text>
	<text transform="matrix(1 0 0 1 753.3502 59.7871)" class="st29 st33 st34">HTTP</text>
	<text transform="matrix(1 0 0 1 752.9528 326.7873)" class="st29 st33 st34">QUIC</text>
	<text transform="matrix(1 0 0 1 244.6742 447.8285)" class="st35 st29 st30">Internet</text>
	<text transform="matrix(1 0 0 1 444.6736 212.7307)" class="st29 st30">TCP Connection</text>
	<text transform="matrix(1 0 0 1 444.6742 511.8283)" class="st29 st30">UDP Connection</text>
	<text transform="matrix(1 0 0 1 514.6735 52.7307)" class="st29 st30">Request</text>
	<text transform="matrix(1 0 0 1 244.6736 172.7308)" class="st35 st29 st30">Internet</text>
	<g>
		<g>
			<line class="st36" x1="232.04" y1="451.68" x2="168.63" y2="451.68"/>
			<g>
				<path class="st28" d="M154.15,451.68c6.82-2.53,15.27-6.84,20.51-11.41l-4.13,11.41l4.13,11.41
					C169.42,458.52,160.96,454.21,154.15,451.68z"/>
			</g>
		</g>
	</g>
	<g>
		<g>
			<line class="st37" x1="224.56" y1="431.68" x2="161.15" y2="431.68"/>
			<g>
				<path class="st11" d="M239.04,431.68c-6.82-2.53-15.27-6.84-20.51-11.41l4.13,11.41l-4.13,11.41
					C223.77,438.52,232.23,434.21,239.04,431.68z"/>
			</g>
		</g>
	</g>
	<g>
		<g>
			<line class="st36" x1="232.04" y1="175.68" x2="168.63" y2="175.68"/>
			<g>
				<path class="st28" d="M154.15,175.68c6.82-2.53,15.27-6.84,20.51-11.41l-4.13,11.41l4.13,11.41
					C169.42,182.52,160.96,178.21,154.15,175.68z"/>
			</g>
		</g>
	</g>
	<g>
		<g>
			<line class="st37" x1="224.56" y1="155.68" x2="161.15" y2="155.68"/>
			<g>
				<path class="st11" d="M239.04,155.68c-6.82-2.53-15.27-6.84-20.51-11.41l4.13,11.41l-4.13,11.41
					C223.77,162.52,232.23,158.21,239.04,155.68z"/>
			</g>
		</g>
	</g>
	<g>
		<g>
			<path class="st37" d="M301.91,109.72c81.7-39.83,260.01-64.96,410.55-33.27c5.08,1.07,10.12,2.19,15.11,3.36"/>
			<g>
				<path class="st11" d="M745.15,84.19c-9.03,1.04-20.58,3.75-28.31,7.73l8.42-12.62l-1.61-15.08
					C728.65,71.33,737.63,79.09,745.15,84.19z"/>
			</g>
		</g>
	</g>
	<text transform="matrix(1 0 0 1 514.6735 325.7308)" class="st29 st30">Request</text>
	<g>
		<g>
			<path class="st37" d="M301.91,382.72c81.7-39.83,260.01-64.96,410.55-33.27c5.08,1.07,10.12,2.19,15.11,3.36"/>
			<g>
				<path class="st11" d="M745.15,357.19c-9.03,1.04-20.58,3.75-28.31,7.73l8.42-12.62l-1.61-15.08
					C728.65,344.33,737.63,352.09,745.15,357.19z"/>
			</g>
		</g>
	</g>
	<g>
		<circle class="st38" cx="447.35" cy="151.68" r="13.08"/>
		<text transform="matrix(1 0 0 1 441.2676 159.7529)" class="st16 st29 st39 st40">1</text>
	</g>
	<g>
		<circle class="st38" cx="486.8" cy="151.68" r="13.08"/>
		<text transform="matrix(1 0 0 1 480.5532 159.7529)" class="st16 st29 st39 st40">2</text>
	</g>
	<g>
		<circle class="st38" cx="525.62" cy="151.68" r="13.08"/>
		<text transform="matrix(1 0 0 1 519.3506 159.7529)" class="st16 st29 st39 st40">3</text>
	</g>
	<g>
		<circle class="st41" cx="565.62" cy="151.68" r="13.08"/>
		<text transform="matrix(1 0 0 1 559.3506 159.7529)" class="st42 st29 st39 st40">4</text>
	</g>
	<g>
		<circle class="st41" cx="604.62" cy="151.68" r="13.08"/>
		<text transform="matrix(1 0 0 1 598.3506 159.7529)" class="st42 st29 st39 st40">5</text>
	</g>
	<g>
		<circle class="st43" cx="680.62" cy="151.68" r="13.08"/>
		<text transform="matrix(1 0 0 1 674.3506 159.7529)" class="st44 st29 st39 st40">7</text>
	</g>
	<g>
		<circle class="st43" cx="719.62" cy="151.68" r="13.08"/>
		<text transform="matrix(1 0 0 1 713.3506 159.7529)" class="st44 st29 st39 st40">8</text>
	</g>
	<g>
		<ellipse class="st45" cx="658.17" cy="151.1" rx="18.55" ry="30.82"/>
		<ellipse class="st45" cx="442.17" cy="151.1" rx="18.55" ry="30.82"/>
		<polyline class="st45" points="656.63,181.81 656.63,181.92 442.17,181.92 439.83,181.92 439.83,181.67 		"/>
		<polyline class="st45" points="442.17,120.29 656.63,120.29 656.63,120.4 		"/>
	</g>
	<g>
		<ellipse class="st45" cx="639.96" cy="421.92" rx="33.7" ry="60.21"/>
		<path class="st45" d="M459.12,361.73c-0.13-0.01-0.27-0.01-0.4-0.01c-0.13,0-0.27,0-0.4,0.01h-0.15
			c-16.93,0.57-30.56,27.3-30.56,60.19c0,31.37,12.39,57.13,28.22,59.95"/>
		<polyline class="st45" points="637.63,481.92 637.63,482.13 458.17,482.13 455.83,482.13 455.83,481.64 		"/>
		<polyline class="st45" points="458.17,361.72 637.63,361.72 637.63,361.94 		"/>
	</g>
	<g>
		<circle class="st41" cx="642.62" cy="151.68" r="13.08"/>
		<text transform="matrix(1 0 0 1 636.3506 159.7529)" class="st42 st29 st39 st40">6</text>
	</g>
	<g>
		<circle class="st38" cx="467.35" cy="383.68" r="13.08"/>
		<text transform="matrix(1 0 0 1 461.2676 391.7529)" class="st16 st29 st39 st40">1</text>
	</g>
	<g>
		<circle class="st38" cx="509.8" cy="383.68" r="13.08"/>
		<text transform="matrix(1 0 0 1 503.5532 391.7529)" class="st16 st29 st39 st40">2</text>
	</g>
	<g>
		<circle class="st38" cx="589.62" cy="383.68" r="13.08"/>
		<text transform="matrix(1 0 0 1 583.3506 391.7529)" class="st16 st29 st39 st40">3</text>
	</g>
	<g>
		<circle class="st41" cx="490.12" cy="419.68" r="13.08"/>
		<text transform="matrix(1 0 0 1 483.8506 427.7529)" class="st42 st29 st39 st40">4</text>
	</g>
	<g>
		<circle class="st41" cx="531.62" cy="419.68" r="13.08"/>
		<text transform="matrix(1 0 0 1 525.3506 427.7529)" class="st42 st29 st39 st40">5</text>
	</g>
	<g>
		<circle class="st43" cx="516.28" cy="454.68" r="13.08"/>
		<text transform="matrix(1 0 0 1 510.0091 462.7528)" class="st44 st29 st39 st40">7</text>
	</g>
	<g>
		<circle class="st43" cx="637.28" cy="454.68" r="13.08"/>
		<text transform="matrix(1 0 0 1 631.009 462.7528)" class="st44 st29 st39 st40">8</text>
	</g>
	<g>
		<circle class="st41" cx="570.12" cy="419.68" r="13.08"/>
		<text transform="matrix(1 0 0 1 563.8506 427.7529)" class="st42 st29 st39 st40">6</text>
	</g>
</g>
</svg>
