<svg viewBox="0 0 800 500" xmlns="http://www.w3.org/2000/svg">
  <!-- Background -->
  <rect width="800" height="500" fill="#f5f7fa" rx="10" ry="10" />
  
  <!-- Title -->
  <text x="400" y="40" font-family="Arial" font-size="24" text-anchor="middle" font-weight="bold">Host Header: Directing Requests to Multiple Domains</text>
  
  <!-- Server -->
  <rect x="440" y="100" width="300" height="320" fill="#e1e8ed" stroke="#8899a6" stroke-width="2" rx="5" ry="5" />
  <text x="590" y="130" font-family="Arial" font-size="20" text-anchor="middle" font-weight="bold">Web Server</text>
  
  <!-- Domains inside server -->
  <rect x="460" y="150" width="260" height="70" fill="#b8e994" stroke="#78e08f" stroke-width="2" rx="5" ry="5" />
  <text x="590" y="185" font-family="Arial" font-size="16" text-anchor="middle" font-weight="bold">example.com</text>
  <text x="590" y="205" font-family="Arial" font-size="12" text-anchor="middle">Document Root: /var/www/example.com</text>
  
  <rect x="460" y="230" width="260" height="70" fill="#f6e58d" stroke="#f9ca24" stroke-width="2" rx="5" ry="5" />
  <text x="590" y="265" font-family="Arial" font-size="16" text-anchor="middle" font-weight="bold">blog.example.com</text>
  <text x="590" y="285" font-family="Arial" font-size="12" text-anchor="middle">Document Root: /var/www/blog.example.com</text>
  
  <rect x="460" y="310" width="260" height="70" fill="#ff7979" stroke="#eb4d4b" stroke-width="2" rx="5" ry="5" />
  <text x="590" y="345" font-family="Arial" font-size="16" text-anchor="middle" font-weight="bold">shop.example.com</text>
  <text x="590" y="365" font-family="Arial" font-size="12" text-anchor="middle">Document Root: /var/www/shop.example.com</text>
  
  <!-- Clients -->
  <rect x="60" y="120" width="120" height="80" fill="#74b9ff" stroke="#0984e3" stroke-width="2" rx="5" ry="5" />
  <text x="120" y="155" font-family="Arial" font-size="16" text-anchor="middle" fill="#ffffff" font-weight="bold">Client 1</text>
  <text x="120" y="175" font-family="Arial" font-size="12" text-anchor="middle" fill="#ffffff">Requesting</text>
  <text x="120" y="190" font-family="Arial" font-size="12" text-anchor="middle" fill="#ffffff">example.com</text>
  
  <rect x="60" y="220" width="120" height="80" fill="#74b9ff" stroke="#0984e3" stroke-width="2" rx="5" ry="5" />
  <text x="120" y="255" font-family="Arial" font-size="16" text-anchor="middle" fill="#ffffff" font-weight="bold">Client 2</text>
  <text x="120" y="275" font-family="Arial" font-size="12" text-anchor="middle" fill="#ffffff">Requesting</text>
  <text x="120" y="290" font-family="Arial" font-size="12" text-anchor="middle" fill="#ffffff">blog.example.com</text>
  
  <rect x="60" y="320" width="120" height="80" fill="#74b9ff" stroke="#0984e3" stroke-width="2" rx="5" ry="5" />
  <text x="120" y="355" font-family="Arial" font-size="16" text-anchor="middle" fill="#ffffff" font-weight="bold">Client 3</text>
  <text x="120" y="375" font-family="Arial" font-size="12" text-anchor="middle" fill="#ffffff">Requesting</text>
  <text x="120" y="390" font-family="Arial" font-size="12" text-anchor="middle" fill="#ffffff">shop.example.com</text>
  
  <!-- Requests with Host headers -->
  <!-- Client 1 Request -->
  <line x1="180" y1="160" x2="320" y2="160" stroke="#0984e3" stroke-width="2" />
  <polygon points="310,155 320,160 310,165" fill="#0984e3" />
  
  <rect x="210" y="120" width="170" height="80" fill="#ffffff" stroke="#0984e3" stroke-width="1" rx="5" ry="5" />
  <text x="295" y="145" font-family="Courier New" font-size="12" text-anchor="middle" font-weight="bold">HTTP Request:</text>
  <text x="295" y="165" font-family="Courier New" font-size="12" text-anchor="middle">GET /index.html</text>
  <text x="295" y="185" font-family="Courier New" font-size="12" text-anchor="middle" font-weight="bold" fill="#ff6b6b">Host: example.com</text>
  
  <!-- Client 2 Request -->
  <line x1="180" y1="260" x2="320" y2="260" stroke="#0984e3" stroke-width="2" />
  <polygon points="310,255 320,260 310,265" fill="#0984e3" />
  
  <rect x="210" y="220" width="170" height="80" fill="#ffffff" stroke="#0984e3" stroke-width="1" rx="5" ry="5" />
  <text x="295" y="245" font-family="Courier New" font-size="12" text-anchor="middle" font-weight="bold">HTTP Request:</text>
  <text x="295" y="265" font-family="Courier New" font-size="12" text-anchor="middle">GET /index.html</text>
  <text x="295" y="285" font-family="Courier New" font-size="12" text-anchor="middle" font-weight="bold" fill="#ff6b6b">Host: blog.example.com</text>
  
  <!-- Client 3 Request -->
  <line x1="180" y1="360" x2="320" y2="360" stroke="#0984e3" stroke-width="2" />
  <polygon points="310,355 320,360 310,365" fill="#0984e3" />
  
  <rect x="210" y="320" width="170" height="80" fill="#ffffff" stroke="#0984e3" stroke-width="1" rx="5" ry="5" />
  <text x="295" y="345" font-family="Courier New" font-size="12" text-anchor="middle" font-weight="bold">HTTP Request:</text>
  <text x="295" y="365" font-family="Courier New" font-size="12" text-anchor="middle">GET /index.html</text>
  <text x="295" y="385" font-family="Courier New" font-size="12" text-anchor="middle" font-weight="bold" fill="#ff6b6b">Host: shop.example.com</text>
  
  <!-- Server routing based on Host header -->
  <line x1="380" y1="160" x2="460" y2="185" stroke="#0984e3" stroke-width="2" stroke-dasharray="5,3" />
  <polygon points="450,179 460,185 450,187" fill="#0984e3" />
  
  <line x1="380" y1="260" x2="460" y2="265" stroke="#0984e3" stroke-width="2" stroke-dasharray="5,3" />
  <polygon points="450,262 460,265 450,269" fill="#0984e3" />
  
  <line x1="380" y1="360" x2="460" y2="345" stroke="#0984e3" stroke-width="2" stroke-dasharray="5,3" />
  <polygon points="450,343 460,345 450,350" fill="#0984e3" />
  
  <!-- IP Address annotation -->
  <rect x="520" y="70" width="140" height="25" fill="#a29bfe" stroke="#6c5ce7" stroke-width="1" rx="5" ry="5" />
  <text x="590" y="87" font-family="Arial" font-size="12" text-anchor="middle" font-weight="bold">IP: 93.184.216.34</text>
  
  <!-- Legend -->
  <rect x="50" y="440" width="700" height="40" fill="#ffffff" stroke="#8899a6" stroke-width="1" rx="5" ry="5" />
  <text x="400" y="465" font-family="Arial" font-size="14" text-anchor="middle">
    <tspan font-weight="bold">Without the Host header:</tspan> Server couldn't distinguish between requests for different domains on the same IP
  </text>
</svg>